<svg xmlns="http://www.w3.org/2000/svg" width="11" height="11" viewBox="0 0 11 11">
    <path fill-rule="evenodd" d="M4.503 8H2.98V6.5c0-.276-.223-.5-.497-.5a.498.498 0 00-.496.5V8H.496A.498.498 0 000 8.492.499.499 0 00.497 9h1.489v1.5c0 .276.222.5.496.5a.498.498 0 00.497-.5V9h1.524c.272 0 .493-.22.497-.492A.499.499 0 004.503 8M11 2.7v5.4c0 .497-.41.9-.907.9h-4.05a.45.45 0 010-.9h3.6a.456.456 0 00.457-.45V2.96a.265.265 0 00-.266-.26H6.768a.9.9 0 01-.809-.504l-.51-1.044A.45.45 0 005.043.9h-1.7a.444.444 0 00-.444.45v3.6a.45.45 0 01-.9 0V1.09C2 .49 2.484 0 3.084 0h2.144a.9.9 0 01.805.497l.403.805a.9.9 0 00.805.498h2.852c.498 0 .907.403.907.9"/>
</svg>
