<svg width="17" height="17" viewBox="0 0 17 17" fill="none" xmlns="http://www.w3.org/2000/svg">
<g clip-path="url(#clip0_3824_11545)">
<path d="M13.4572 2.83223H12.677C12.3416 1.18535 10.8906 0.00332031 9.20723 0H7.78945C6.10938 0.00332031 4.6584 1.18535 4.31973 2.83223H3.53945C1.58711 2.83555 0.00332031 4.41934 0 6.375V13.4572C0.00332031 15.4129 1.58711 16.9967 3.54277 17H13.4605C15.4162 16.9967 17 15.4129 17.0033 13.4572V6.375C16.9967 4.41934 15.4129 2.83555 13.4572 2.83223ZM7.79277 1.41777H9.21055C10.107 1.42109 10.9072 1.98887 11.2061 2.83555H5.79727C6.09609 1.98887 6.89297 1.42109 7.79277 1.41777ZM3.54277 4.25H13.4605C14.6326 4.25 15.5855 5.20293 15.5855 6.375V8.5H1.41777V6.375C1.41777 5.20293 2.36738 4.25 3.54277 4.25ZM13.4572 15.5822H3.54277C2.3707 15.5822 1.41777 14.6293 1.41777 13.4572V9.91777H7.79277V10.625C7.79277 11.0168 8.11152 11.3322 8.5 11.3322C8.8918 11.3322 9.20723 11.0135 9.20723 10.625V9.91777H15.5822V13.4605C15.5822 14.6326 14.6326 15.5822 13.4572 15.5822Z" fill="white"/>
</g>
<defs>
<clipPath id="clip0_3824_11545">
<rect width="17" height="17" fill="white"/>
</clipPath>
</defs>
</svg>
