<?xml version="1.0" encoding="utf-8"?>
<!-- Generator: Adobe Illustrator 26.0.1, SVG Export Plug-In . SVG Version: 6.00 Build 0)  -->
<svg version="1.1" id="Outline" xmlns="http://www.w3.org/2000/svg" xmlns:xlink="http://www.w3.org/1999/xlink" x="0px" y="0px"
	 viewBox="0 0 512 512" style="enable-background:new 0 0 512 512;" xml:space="preserve">
<style type="text/css">
	.st0{fill:#07485E;}
</style>
<path class="st0" d="M405.3,85.3h-23.5C371.7,35.7,328,0.1,277.3,0h-42.7C184,0.1,140.3,35.7,130.1,85.3h-23.5
	C47.8,85.4,0.1,133.1,0,192v213.3C0.1,464.2,47.8,511.9,106.7,512h298.7c58.9-0.1,106.6-47.8,106.7-106.7V192
	C511.9,133.1,464.2,85.4,405.3,85.3z M234.7,42.7h42.7c27,0.1,51.1,17.2,60.1,42.7H174.6C183.6,59.9,207.6,42.8,234.7,42.7z
	 M106.7,128h298.7c35.3,0,64,28.7,64,64v64H42.7v-64C42.7,156.7,71.3,128,106.7,128z M405.3,469.3H106.7c-35.3,0-64-28.7-64-64
	V298.7h192V320c0,11.8,9.6,21.3,21.3,21.3c11.8,0,21.3-9.6,21.3-21.3v-21.3h192v106.7C469.3,440.7,440.7,469.3,405.3,469.3z"/>
</svg>
