<svg width="14" height="14" viewBox="0 0 14 14" fill="none" xmlns="http://www.w3.org/2000/svg">
<g clip-path="url(#clip0_3488_32822)">
<path d="M14 6.56074C13.9156 5.19576 13.4337 3.88529 12.6135 2.79091C11.7934 1.69652 10.6709 0.866064 9.38449 0.401907C8.09807 -0.0622502 6.70395 -0.139812 5.37398 0.178782C4.04402 0.497377 2.83635 1.1982 1.89988 2.19485C0.963398 3.19151 0.339044 4.44042 0.103786 5.78763C-0.131471 7.13483 0.0326516 8.52143 0.575921 9.77649C1.11919 11.0315 2.01786 12.1002 3.16113 12.8507C4.30441 13.6012 5.64231 14.0007 7.0099 14H11.0833C11.8566 13.9992 12.5981 13.6917 13.1449 13.1449C13.6917 12.5981 13.9992 11.8566 14 11.0833V6.56074ZM12.8333 11.0833C12.8333 11.5475 12.6489 11.9926 12.3208 12.3208C11.9926 12.649 11.5475 12.8333 11.0833 12.8333H7.0099C6.18678 12.833 5.37298 12.6591 4.62156 12.3231C3.87014 11.9871 3.19798 11.4965 2.6489 10.8832C2.09717 10.2703 1.68286 9.54652 1.43376 8.76037C1.18465 7.97422 1.10651 7.1439 1.20457 6.32508C1.35941 5.03354 1.93968 3.83027 2.85391 2.90495C3.76814 1.97963 4.96433 1.38489 6.2539 1.21449C6.50546 1.18296 6.75872 1.16699 7.01224 1.16666C8.37168 1.16295 9.68904 1.63794 10.7333 2.50833C11.3432 3.01521 11.8438 3.64067 12.2048 4.34678C12.5658 5.05289 12.7796 5.82495 12.8333 6.61616V11.0833Z" fill="#939393"/>
<path d="M4.66665 5.24999H6.99998C7.15469 5.24999 7.30306 5.18854 7.41246 5.07914C7.52185 4.96974 7.58331 4.82137 7.58331 4.66666C7.58331 4.51195 7.52185 4.36358 7.41246 4.25418C7.30306 4.14479 7.15469 4.08333 6.99998 4.08333H4.66665C4.51194 4.08333 4.36356 4.14479 4.25417 4.25418C4.14477 4.36358 4.08331 4.51195 4.08331 4.66666C4.08331 4.82137 4.14477 4.96974 4.25417 5.07914C4.36356 5.18854 4.51194 5.24999 4.66665 5.24999Z" fill="#939393"/>
<path d="M9.33331 6.41667H4.66665C4.51194 6.41667 4.36356 6.47813 4.25417 6.58753C4.14477 6.69692 4.08331 6.8453 4.08331 7.00001C4.08331 7.15471 4.14477 7.30309 4.25417 7.41248C4.36356 7.52188 4.51194 7.58334 4.66665 7.58334H9.33331C9.48802 7.58334 9.6364 7.52188 9.74579 7.41248C9.85519 7.30309 9.91665 7.15471 9.91665 7.00001C9.91665 6.8453 9.85519 6.69692 9.74579 6.58753C9.6364 6.47813 9.48802 6.41667 9.33331 6.41667Z" fill="#939393"/>
<path d="M9.33331 8.75H4.66665C4.51194 8.75 4.36356 8.81146 4.25417 8.92085C4.14477 9.03025 4.08331 9.17862 4.08331 9.33333C4.08331 9.48804 4.14477 9.63642 4.25417 9.74581C4.36356 9.85521 4.51194 9.91667 4.66665 9.91667H9.33331C9.48802 9.91667 9.6364 9.85521 9.74579 9.74581C9.85519 9.63642 9.91665 9.48804 9.91665 9.33333C9.91665 9.17862 9.85519 9.03025 9.74579 8.92085C9.6364 8.81146 9.48802 8.75 9.33331 8.75Z" fill="#939393"/>
</g>
<defs>
<clipPath id="clip0_3488_32822">
<rect width="14" height="14" fill="white"/>
</clipPath>
</defs>
</svg>
