<?xml version="1.0" encoding="UTF-8"?><svg id="a" xmlns="http://www.w3.org/2000/svg" viewBox="0 0 133.66 107.86"><path d="M59.83,36.08c-.3-1.68,.08-3.37,1.06-4.76,.77-1.1,1.85-1.89,3.08-2.33-.21-.23-.43-.45-.61-.71-.98-1.39-1.35-3.08-1.06-4.76,.54-3.05,3.17-5.27,6.27-5.27,.01,0,.03,0,.04,0-.77-1.78-.73-3.89,.31-5.7,1.13-1.97,3.25-3.19,5.52-3.19,.76,0,1.5,.15,2.21,.41-.02-.31-.04-.62,0-.93,.15-1.7,.95-3.23,2.25-4.33,1.15-.96,2.6-1.49,4.09-1.49s2.97,.57,4.12,1.54c.56-1.87,1.94-3.47,3.91-4.19C91.73,.13,92.46,0,93.2,0c2.31,0,4.41,1.26,5.53,3.22,1.16-1.56,3-2.58,5.09-2.58,3.15,0,5.75,2.3,6.26,5.3,1.02-.67,2.23-1.07,3.5-1.07,.74,0,1.48,.13,2.18,.39,1.6,.58,2.88,1.75,3.6,3.3,.56,1.21,.72,2.53,.48,3.82,.48-.11,.97-.18,1.47-.18,1.49,0,2.95,.53,4.09,1.49,1.3,1.09,2.1,2.63,2.25,4.33,.12,1.33-.19,2.62-.85,3.75,1.98,.23,3.77,1.39,4.78,3.14,.85,1.47,1.08,3.19,.64,4.84-.35,1.29-1.08,2.41-2.09,3.24,1.75,.88,3.07,2.53,3.43,4.57,.3,1.68-.08,3.37-1.06,4.76-.77,1.1-1.84,1.89-3.08,2.33,1.34,1.42,2.03,3.41,1.66,5.47-.54,3.05-3.17,5.27-6.27,5.27-.01,0-.03,0-.04,0,.77,1.78,.73,3.89-.31,5.7-1.14,1.97-3.25,3.19-5.52,3.19-.76,0-1.5-.15-2.21-.41,.02,.31,.04,.62,0,.93-.15,1.7-.95,3.23-2.25,4.33-1.15,.96-2.6,1.49-4.09,1.49s-2.97-.57-4.12-1.54c-.56,1.87-1.94,3.47-3.91,4.19-.7,.26-1.44,.39-2.18,.39-2.31,0-4.41-1.26-5.53-3.22-1.16,1.56-3,2.58-5.09,2.58-3.15,0-5.75-2.3-6.26-5.3-1.02,.67-2.23,1.07-3.5,1.07-.74,0-1.48-.13-2.18-.39-1.6-.58-2.88-1.75-3.6-3.29-.56-1.21-.72-2.53-.48-3.82-.48,.11-.97,.18-1.47,.18-1.49,0-2.95-.53-4.09-1.49-2.41-2.02-2.93-5.45-1.4-8.08-1.98-.23-3.77-1.39-4.78-3.14-.85-1.47-1.08-3.19-.64-4.83,.35-1.29,1.08-2.41,2.1-3.24-1.75-.88-3.07-2.53-3.43-4.57Z" style="fill:#262626;"/><path d="M37.8,71.01l-4.67,35.95h20.62s-.13-44.43-.13-44.43l3.36-4.72c.5-.71,.46-1.69-.21-2.4-.11-.12-.26-.22-.41-.28-1.4-.64-2.99-.47-4.22,.42l-6.1,4.46s-.02,.02-.03,.03l-8.2,10.98Z" style="fill:#fff;"/><path d="M53.86,107.44h0c.27,0,.48-.22,.47-.49l-.74-44.43,3.36-4.72c.32-.46,.42-1.03,.26-1.57-.16-.54-.55-.97-1.07-1.17-1.34-.54-2.84-.35-4.01,.5l-6.1,4.46c-.21,.16-.26,.46-.1,.67,.16,.21,.46,.26,.67,.1l6.1-4.46c.9-.66,2.05-.8,3.08-.39,.24,.1,.43,.3,.5,.55,.07,.25,.03,.52-.12,.74l-3.45,4.85c-.06,.08-.09,.18-.09,.29l.74,44.59c0,.26,.22,.47,.48,.47Z" style="fill:#262626;"/><ellipse cx="92.92" cy="27.72" rx="17.56" ry="16.49" transform="translate(-3.83 34.15) rotate(-20.42)" style="fill:#262626;"/><rect x="80.76" y="35.38" width="19.52" height="37.25" style="fill:#fff;"/><path d="M100.28,34.9h-19.52c-.26,0-.48,.21-.48,.48v37.24c0,.27,.22,.49,.48,.49h19.52c.26,0,.48-.22,.48-.49V35.38c0-.27-.22-.48-.48-.48Zm-.49,37.24h-18.55V35.86h18.55v36.28Z" style="fill:#262626;"/><path d="M80.98,57.75c5.21-1.19,9.7-4.97,11.55-10.4l1.7-5-13.25-4.53v19.93Z" style="fill:#262626;"/><path d="M97.23,28.65c-.73-5.38-5.03-9.8-10.67-10.46h0c-6.69-.78-12.76,4.01-13.54,10.7l-.16,1.34c-1.35-.01-2.52,.99-2.67,2.36h0c-.15,1.36,.75,2.58,2.05,2.87l-.55,4.67c-.78,6.69,4.01,12.76,10.7,13.54,6.69,.79,12.76-4.01,13.54-10.7l.47-4.02,2.42-.64c2.62-.7,4.19-3.39,3.49-6.02h0c-.62-2.31-2.78-3.8-5.09-3.64Z" style="fill:#fff;"/><path d="M102.78,32.16c-.55-2.09-2.29-3.61-4.36-3.93-.25-.05-.51-.08-.78-.08-.94-5.52-5.42-9.79-11.02-10.45-3.12-.36-6.19,.42-8.74,2.2-.21,.14-.41,.29-.61,.45-.88,.7-1.66,1.5-2.31,2.38-1.32,1.76-2.16,3.85-2.42,6.09l-.11,.94c-1.42,.18-2.56,1.31-2.72,2.76-.15,1.44,.69,2.77,2.01,3.27l-.5,4.27c-.73,6.24,3.22,11.96,9.06,13.66,.15,.05,.31,.09,.48,.12,.07,.03,.14,.05,.22,.06,.09,.02,.17,.04,.26,.06,.36,.08,.73,.14,1.1,.18,.5,.06,1,.09,1.49,.09,1.86,0,3.65-.41,5.26-1.15,3.65-1.67,6.42-5.04,7.2-9.2,.05-.28,.1-.57,.13-.86l.43-3.7,2.11-.55c.29-.08,.57-.18,.83-.3,.17-.08,.33-.16,.49-.26,.17-.09,.33-.19,.48-.31,1.74-1.27,2.61-3.53,2.02-5.74Zm-6.84,6.73l-.48,4.02c-.05,.4-.11,.79-.2,1.18-.63,2.85-2.28,5.27-4.51,6.9-2.31,1.7-5.23,2.55-8.29,2.19-.41-.05-.82-.12-1.22-.21-.09-.02-.18-.04-.26-.06s-.15-.04-.22-.06c-.16-.04-.32-.09-.48-.14-5.25-1.66-8.77-6.87-8.1-12.54l.55-4.66c.02-.25-.14-.47-.38-.53-1.07-.25-1.8-1.26-1.68-2.35,.12-1.1,1.05-1.93,2.17-1.93h.02c.24,0,.45-.18,.48-.43l.16-1.33c.24-2.11,1.04-4.08,2.29-5.73,.3-.39,.63-.77,.98-1.12,.34-.35,.71-.68,1.1-.99,2.46-1.94,5.52-2.81,8.63-2.44,5.32,.62,9.53,4.75,10.26,10.05,.03,.25,.25,.43,.51,.41,.1,0,.2-.01,.3-.01h0c1.99,0,3.76,1.35,4.27,3.3,.41,1.55-.05,3.13-1.09,4.21-.14,.16-.3,.3-.48,.43-.15,.13-.32,.24-.49,.34-.33,.19-.69,.35-1.08,.45l-2.42,.64c-.19,.05-.33,.21-.35,.41Z" style="fill:#262626;"/><path d="M97.18,35.53s.04,0,.07,0c.26-.04,.45-.28,.41-.54-.23-1.7,1.16-2.52,1.22-2.55,.23-.13,.31-.43,.18-.66-.13-.23-.42-.31-.65-.18-.08,.05-2.02,1.16-1.7,3.52,.03,.24,.24,.42,.48,.42Z" style="fill:#262626;"/><path d="M76.13,37.76c.89,0,2.11-.38,3.11-2.12,.13-.23,.05-.52-.18-.66-.23-.13-.52-.05-.66,.18-1.3,2.25-2.87,1.59-3.04,1.5-.24-.11-.53-.02-.64,.22-.12,.24-.02,.52,.22,.64,.01,0,.5,.24,1.19,.24Z" style="fill:#262626;"/><path d="M75.97,30.31c.03,.68,.51,1.22,1.07,1.2s1-.6,.97-1.28c-.03-.68-.51-1.22-1.07-1.2s-1,.6-.97,1.28Z" style="fill:#262626;"/><path d="M77.05,26.05c-.18,.39,.55,1.1,1.63,1.6,1.08,.49,2.1,.58,2.27,.19,.18-.39-.55-1.1-1.63-1.6-1.08-.49-2.1-.58-2.27-.19Z" style="fill:#262626;"/><path d="M122.29,107.62H48.67l31.25-38.59c3.52-4.35,8.79-6.91,14.39-6.98h0c8.42-.12,15.89,5.36,18.31,13.42l9.67,32.16Z" style="fill:#41e0ba;"/><path d="M95.5,8.67c8.76,1.34,15.47,7.75,17.64,15.79-.94,.45-2.02,.62-3.08,.45-.62-.1-1.22-.31-1.77-.61-.02,.26-.05,.51-.11,.77-.34,1.38-1.19,2.54-2.4,3.28-1.07,.65-2.33,.9-3.56,.71-1.26-.19-2.38-.84-3.2-1.79-.69,1.47-2.04,2.61-3.75,2.96-.61,.12-1.23,.14-1.84,.04-1.9-.29-3.48-1.6-4.15-3.35-1.15,1.14-2.8,1.75-4.52,1.48-2.59-.4-4.45-2.62-4.49-5.16-.92,.43-1.97,.6-3.02,.44-.61-.09-1.2-.29-1.75-.59-1.19-.65-2.07-1.72-2.49-3.01,4.16-7.99,13.08-12.84,22.48-11.4Z" style="fill:#262626;"/><path d="M82.44,107.85c.17,0,.34-.09,.42-.25l5.85-10.77c.13-.23,.04-.53-.19-.65-.23-.13-.53-.04-.65,.19l-5.85,10.76c-.13,.23-.04,.53,.19,.65,.07,.04,.15,.06,.23,.06Z" style="fill:#262626;"/><path d="M131.42,107.86H.46c-.25,0-.46-.2-.46-.46s.2-.46,.46-.46H131.42c.25,0,.46,.2,.46,.46s-.2,.46-.46,.46Z" style="fill:#262626;"/><g><rect x="4.69" y="22.5" width="44.49" height="40.55" style="fill:#dedede;"/><path d="M26.93,63.5c-.25,0-.44-.2-.44-.44V22.5c0-.25,.2-.44,.44-.44s.44,.2,.44,.44V63.05c0,.25-.2,.44-.44,.44Z" style="fill:#262626;"/><path d="M47.21,43.22H6.66c-.25,0-.44-.2-.44-.44s.2-.44,.44-.44H47.21c.25,0,.44,.2,.44,.44s-.2,.44-.44,.44Z" style="fill:#262626;"/><path d="M27.23,22.17s-.03-.07-.05-.1l-.4-.51-4-4.99c-.46-.58-1.15-.93-1.89-.97-.73-.04-1.45,.23-1.97,.75-.65,.65-.91,1.57-.69,2.46,.22,.89,.87,1.58,1.74,1.85l5.87,1.84,.59,.18s.01,0,.02,0h.04l.21,.08s.05,.02,.07,.01c.01,.01,.01,0,.01,0,.02,.01,.03,.01,.05,.01,.11,0,.21-.04,.29-.11h.01s.05-.05,.07-.08c.02-.03,.04-.06,.05-.1,.04-.11,.03-.23-.02-.33Zm-6.99-2.35c-.57-.18-1-.64-1.15-1.23-.14-.58,.03-1.18,.45-1.61,.32-.32,.76-.5,1.21-.5h.1c.48,.03,.93,.26,1.23,.64l3.5,4.37-5.34-1.67Z" style="fill:#262626;"/><path d="M34.64,16.35c-.52-.52-1.25-.79-1.98-.75-.74,.04-1.42,.39-1.88,.97l-4,4.99-.41,.51c-.1,.13-.12,.29-.07,.43,.01,.04,.03,.07,.05,.1,.02,.03,.05,.06,.08,.08,0,0,.01,0,.02,0,.01,.02,.02,.03,.04,.03,.07,.05,.15,.07,.23,.07,.02,0,.04,0,.05-.01,.01,.01,.01,0,.01,0,.03,.01,.05,0,.07-.01l.27-.09h.01l.25-.08,.33-.1,5.87-1.84c.87-.27,1.52-.96,1.74-1.85,.22-.89-.04-1.81-.68-2.46Zm-.18,2.24c-.14,.59-.57,1.05-1.15,1.23l-5.33,1.67,3.49-4.37c.3-.38,.75-.61,1.24-.64h.09c.45,0,.89,.18,1.21,.5,.42,.43,.59,1.03,.45,1.61Z" style="fill:#262626;"/></g><g><path d="M49.18,62.71c-.07,.12-.16,.24-.27,.34h-.01l-4.16,4.05-.27,1.51-6.96,38.33v.02H16.54v-.02l1.5-4.62,7.23-21.49,2.37-8.26-9.64-3.96c-.87-.35-1.31-1.4-.77-2.37,.07-.15,.19-.27,.32-.36,.53-.39,1.13-.67,1.75-.83,.08-.02,.15-.04,.23-.06,.44-.1,.89-.14,1.34-.12l-.06-.06-1.8-1.76-.22-.21c-.18-.18-.32-.4-.38-.64-.15-.55-.06-1.06,.2-1.46,.21-.37,.57-.65,.99-.77l-.65-.63c-.17-.17-.3-.37-.37-.6-.32-1.12,.35-2.1,1.32-2.3,.87-.19,1.77-.17,2.63,.04-.04-.23-.02-.47,.04-.7,0-.03,0-.07,.01-.1,.02-.08,.05-.15,.08-.23,.12-.3,.34-.58,.68-.81,.11-.07,.23-.12,.35-.15,.93-.23,1.89-.23,2.8-.02,.3,.07,.6,.17,.89,.29,.59,.24,1.13,.57,1.62,.99l8.46,7.3,.24,.21s.02-.02,.03-.02l.4-.19,6.42-3.09c.67-.32,1.39-.46,2.1-.41h.03c.42,.03,.83,.13,1.23,.29h.01c.29,.12,.58,.28,.85,.47,.14,.1,.26,.21,.35,.35,.02,.04,.05,.07,.06,.11,.14,.25,.21,.5,.24,.75,0,.01,0,.03,0,.04,0,0,0,.01,0,.02,.04,.4-.04,.8-.25,1.13Z" style="fill:#fff;"/><path d="M39.67,66.11c.14,0,.27-.06,.36-.17,.17-.2,.15-.51-.05-.68l-10.99-9.5c-1.39-1.2-3.3-1.69-5.09-1.31-.63,.13-1.13,.6-1.31,1.22-.18,.62,0,1.28,.45,1.73l8.75,8.56c.19,.19,.49,.18,.68,0,.19-.19,.18-.49,0-.68l-8.75-8.56c-.21-.2-.29-.49-.2-.77,.08-.28,.3-.48,.59-.55,1.5-.32,3.1,.09,4.26,1.09l10.99,9.5c.09,.08,.2,.12,.31,.12Z" style="fill:#262626;"/><path d="M28.41,68.28c.13,0,.25-.05,.35-.15,.18-.19,.18-.5-.01-.68l-9.03-8.73c-.21-.2-.28-.49-.2-.77,.08-.28,.3-.48,.59-.55,1.12-.24,2.3-.08,3.32,.45,.24,.12,.53,.03,.65-.2,.12-.24,.03-.53-.2-.65-1.22-.63-2.62-.82-3.96-.54-.63,.13-1.13,.6-1.31,1.22-.18,.62,0,1.28,.46,1.73l9.03,8.73c.09,.09,.21,.14,.33,.14Z" style="fill:#262626;"/><path d="M26.58,69.44c.13,0,.27-.06,.36-.17,.17-.2,.15-.5-.05-.68l-7.36-6.4c-.19-.19-.26-.47-.18-.76,.08-.28,.3-.48,.59-.55,.24-.05,.49-.09,.74-.1,.27-.02,.47-.24,.45-.51-.02-.27-.25-.47-.51-.45-.29,.02-.59,.06-.88,.12-.63,.13-1.13,.6-1.31,1.22-.18,.62,0,1.28,.45,1.73l7.38,6.42c.09,.08,.2,.12,.32,.12Z" style="fill:#262626;"/><path d="M28.7,72.4l-2.51,8.71-8.69,25.83v.02l-.06,.15c-.07,.2-.26,.33-.46,.33-.05,0-.1,0-.15-.03-.2-.07-.34-.27-.33-.47,0-.05,.01-.1,.03-.14l1.51-4.48,7.23-21.49,2.37-8.26v-.02l-9.64-3.96c-.54-.22-.92-.72-.98-1.31-.06-.59,.2-1.16,.69-1.49,.47-.32,1.01-.57,1.59-.74,.08-.02,.15-.04,.23-.06,.42-.1,.85-.17,1.28-.18,.08-.01,.17-.01,.25-.01,.59,0,1.16,.08,1.68,.26,.25,.09,.39,.36,.3,.61-.09,.25-.36,.39-.61,.3-.01,0-.02-.01-.03-.01-1.27-.42-3-.15-4.15,.63-.2,.13-.3,.35-.27,.59,.02,.24,.17,.43,.39,.52l10.05,4.12c.22,.1,.34,.34,.28,.58Z" style="fill:#262626;"/><path d="M37.62,107.44c.23,0,.44-.17,.47-.4l6.63-39.95,4.16-4.03c.4-.39,.6-.93,.54-1.49-.06-.56-.36-1.05-.84-1.35-1.22-.77-2.73-.86-4.03-.23l-6.81,3.28c-.24,.12-.34,.4-.23,.64,.12,.24,.4,.34,.64,.23l6.81-3.28c1-.48,2.16-.42,3.1,.18,.22,.14,.37,.37,.39,.63,.03,.26-.07,.52-.25,.7l-4.27,4.14c-.07,.07-.12,.17-.14,.27l-6.66,40.11c-.04,.26,.13,.51,.4,.55,.03,0,.05,0,.08,0Z" style="fill:#262626;"/></g></svg>