<?xml version="1.0" standalone="no"?>
<!DOCTYPE svg PUBLIC "-//W3C//DTD SVG 20010904//EN"
 "http://www.w3.org/TR/2001/REC-SVG-20010904/DTD/svg10.dtd">
<svg version="1.0" xmlns="http://www.w3.org/2000/svg"
 width="225.000000pt" height="225.000000pt" viewBox="0 0 225.000000 225.000000"
 preserveAspectRatio="xMidYMid meet">

<g transform="translate(0.000000,225.000000) scale(0.100000,-0.100000)"
fill="#000000" stroke="none">
<path d="M845 1920 l-49 -50 -163 0 -163 0 0 -90 0 -90 655 0 655 0 0 90 0 90
-163 0 -163 0 -49 50 -49 50 -231 0 -231 0 -49 -50z"/>
<path d="M560 1024 c0 -405 3 -578 12 -606 15 -50 76 -111 126 -126 50 -15
800 -17 854 -2 51 15 113 80 127 134 7 31 11 225 11 605 l0 561 -565 0 -565 0
0 -566z m840 -82 l-90 -3 0 -189 0 -190 -185 0 -185 0 0 190 0 190 -92 0 -93
0 185 185 185 185 183 -182 182 -183 -90 -3z"/>
</g>
</svg>
