<?xml version="1.0" encoding="UTF-8"?><svg id="a" xmlns="http://www.w3.org/2000/svg" viewBox="0 0 151.41 107.35"><g><path d="M17.3,79.92l12.24-15.92c3.68-4.78,9.1-7.92,15.08-8.73l33.37-4.51c7.64-1.03,15.09,2.89,18.57,9.77l23.57,46.67H21.8s-4.95-27.73-4.5-27.28Z" style="fill:#ff7e27;"/><polygon points="112.63 107.21 128.52 64.03 132.12 66.73 139.31 107.21 112.63 107.21" style="fill:#fff;"/><path d="M112.89,107.21c-.05,0-.1,0-.16-.03-.23-.09-.35-.35-.27-.58l15.63-42.72c.05-.13,.16-.24,.3-.28,.14-.04,.28-.01,.4,.07l3.6,2.7c.09,.07,.15,.17,.17,.28l7.09,39.99c.04,.25-.12,.48-.36,.52-.25,.04-.48-.12-.52-.36l-7.06-39.81-2.97-2.23-15.42,42.15c-.07,.18-.24,.3-.42,.3Z" style="fill:#262626;"/><circle cx="65.09" cy="17.96" r="16.84" style="fill:#262626;"/><circle cx="76.05" cy="12.18" r="10.08" transform="translate(13.66 57.34) rotate(-45)" style="fill:#262626;"/><path d="M79.63,45.61c8.23-3.04,11.75-14.05,7.87-24.6-3.89-10.55-13.72-16.64-21.95-13.61-6.87,2.53-10.46,10.63-9.19,19.37-1.47-1.9-3.9-2.96-6.44-2.55-3.53,.57-6.08,3.92-5.66,7.47,.44,3.85,3.99,6.53,7.79,5.94,.81-.13,1.56-.4,2.24-.78l.03,18.38c-2.17,.44,26.65,12.73,23.42-3.06l-1.74-5.82c1.23-.07,2.45-.31,3.64-.75Z" style="fill:#fff;"/><path d="M70.68,60.66c-2.22,0-4.57-.41-6.56-.88-4.53-1.09-8.5-2.82-9.74-3.64-.37-.24-.7-.52-.62-.9,0-.04,.03-.14,.11-.23l-.03-17.43c-.56,.24-1.13,.41-1.73,.5-1.96,.31-3.92-.19-5.5-1.39-1.58-1.2-2.58-2.96-2.81-4.94-.44-3.79,2.27-7.36,6.04-7.97,2.15-.35,4.31,.3,5.91,1.7-.34-3.9,.26-7.73,1.74-10.91,1.72-3.69,4.45-6.32,7.9-7.59,4.12-1.52,8.73-.9,13,1.75,4.23,2.62,7.62,6.93,9.53,12.13,1.92,5.2,2.14,10.67,.62,15.41-1.53,4.78-4.64,8.25-8.75,9.77h0c-1.02,.38-2.1,.62-3.21,.73l1.58,5.29s0,.03,0,.04c.7,3.41,0,5.86-2.07,7.26-1.43,.97-3.37,1.31-5.42,1.31Zm-15.92-5.35c.76,.55,3.82,2.02,8.04,3.2,3.06,.85,8.7,2.05,12.05,.51,2.35-1.08,3.15-3.28,2.45-6.73l-1.74-5.8c-.04-.13-.02-.27,.06-.39,.08-.11,.21-.18,.34-.19,1.22-.07,2.4-.31,3.51-.72h0c7.99-2.94,11.4-13.72,7.6-24.02-1.85-5.01-5.1-9.15-9.16-11.67-4.03-2.5-8.36-3.09-12.21-1.67-6.5,2.4-10.17,10.16-8.9,18.89,.03,.2-.08,.4-.27,.48-.19,.08-.41,.02-.53-.14-1.42-1.84-3.73-2.75-6.02-2.38-3.3,.53-5.67,3.66-5.29,6.98,.2,1.73,1.07,3.27,2.46,4.32,1.38,1.05,3.09,1.49,4.81,1.22,.73-.11,1.43-.36,2.1-.72,.14-.08,.31-.08,.45,0,.14,.08,.22,.23,.22,.39l.03,18.38s0,.04,0,.06Z" style="fill:#262626;"/><path d="M54.15,33c-.24,0-.43-.18-.45-.42-.11-1.72-.65-3-1.62-3.82-1.37-1.17-3.18-1.01-3.2-1.01-.25,.02-.47-.16-.49-.4-.02-.25,.16-.47,.4-.49,.09,0,2.19-.2,3.86,1.21,1.16,.99,1.82,2.49,1.94,4.46,.02,.25-.17,.46-.42,.48h-.03Z" style="fill:#262626;"/><path d="M75.23,46.84c-4.79,0-9.65-2.49-13.41-6.86-.16-.19-.14-.47,.05-.64,.19-.16,.47-.14,.64,.05,3.68,4.29,8.45,6.67,13.08,6.55,.25,0,.46,.19,.46,.44,0,.25-.19,.46-.44,.46-.12,0-.25,0-.38,0Z" style="fill:#262626;"/><path d="M82.92,18.61c-.2,.53,.82,1.42,2.28,1.98,1.46,.57,2.82,.6,3.02,.07,.2-.53-.82-1.42-2.28-1.98-1.46-.57-2.82-.6-3.02-.07Z" style="fill:#262626;"/><ellipse cx="72.85" cy="21.71" rx="3.53" ry="1.27" transform="translate(-2.95 27.42) rotate(-20.9)" style="fill:#262626;"/><path d="M79.33,36.22c-3.98,0-6.2-2.57-6.3-2.69-.16-.19-.14-.47,.05-.64,.19-.16,.47-.14,.63,.05,.03,.04,2.38,2.72,6.43,2.33,.25-.02,.47,.16,.49,.41,.02,.25-.16,.47-.41,.49-.31,.03-.61,.04-.91,.04Z" style="fill:#262626;"/><circle cx="68.17" cy="6.73" r="6.72" style="fill:#262626;"/><circle cx="59.07" cy="12.21" r="6.72" style="fill:#262626;"/><path d="M62.04,27.16c-.43,1.69-2.15,2.71-3.84,2.27-1.69-.43-2.71-2.15-2.27-3.84,.43-1.69-2-13.02,2.81-11.79,5.69,1.46,3.74,11.67,3.31,13.36Z" style="fill:#262626;"/><path d="M51.04,9.05c-.1,0-.19-.03-.27-.09-.52-.4-1.51-.38-1.85-.34-.25,.03-.47-.14-.5-.39-.03-.25,.14-.47,.39-.5,.06,0,1.59-.2,2.52,.52,.2,.15,.23,.43,.08,.63-.09,.12-.22,.18-.36,.18Z" style="fill:#262626;"/><path d="M51.64,8.33c-.08,0-.16-.02-.24-.07-.05-.03-1.31-.84-1.22-2.39,.02-.25,.23-.44,.48-.42,.25,.02,.44,.23,.42,.48-.06,1,.77,1.55,.8,1.57,.21,.13,.27,.41,.14,.62-.09,.14-.23,.21-.38,.21Z" style="fill:#262626;"/><ellipse cx="74.71" cy="27.16" rx="1.35" ry="2.1" style="fill:#262626;"/><ellipse cx="85.5" cy="26.26" rx="1.35" ry="2.1" style="fill:#262626;"/><rect x="6.75" y="69.06" width="88.86" height="37.84" rx="2.8" ry="2.8" style="fill:#fff;"/><path d="M91.63,107.35H10.72c-2.44,0-4.43-1.99-4.43-4.43v-29.89c0-2.44,1.99-4.43,4.43-4.43H91.63c2.44,0,4.43,1.99,4.43,4.43v29.89c0,2.44-1.99,4.43-4.43,4.43ZM10.72,69.51c-1.94,0-3.52,1.58-3.52,3.52v29.89c0,1.94,1.58,3.52,3.52,3.52H91.63c1.94,0,3.52-1.58,3.52-3.52v-29.89c0-1.94-1.58-3.52-3.52-3.52H10.72Z" style="fill:#262626;"/><path d="M11.83,75.26c-1.04,0-1.89-.85-1.89-1.89s.85-1.89,1.89-1.89,1.89,.85,1.89,1.89-.85,1.89-1.89,1.89Zm0-2.87c-.54,0-.99,.44-.99,.99s.44,.99,.99,.99,.99-.44,.99-.99-.44-.99-.99-.99Z" style="fill:#262626;"/><path d="M16.66,75.26c-1.04,0-1.89-.85-1.89-1.89s.85-1.89,1.89-1.89,1.89,.85,1.89,1.89-.85,1.89-1.89,1.89Zm0-2.87c-.54,0-.99,.44-.99,.99s.44,.99,.99,.99,.99-.44,.99-.99-.44-.99-.99-.99Z" style="fill:#262626;"/><path d="M21.5,75.26c-1.04,0-1.89-.85-1.89-1.89s.85-1.89,1.89-1.89,1.89,.85,1.89,1.89-.85,1.89-1.89,1.89Zm0-2.87c-.54,0-.99,.44-.99,.99s.44,.99,.99,.99,.99-.44,.99-.99-.44-.99-.99-.99Z" style="fill:#262626;"/><rect x="84.34" y="44.13" width="44.16" height="44.16" rx="6.96" ry="6.96" transform="translate(-.8 1.3) rotate(-.7)" style="fill:#262626;"/><path d="M107.93,70.85l-5.41,3.12c-1.23,.71-2.76-.18-2.76-1.6v-12.49c0-1.42,1.54-2.3,2.76-1.6l5.41,3.12,5.41,3.12c1.23,.71,1.23,2.48,0,3.19l-5.41,3.12Z" style="fill:#fff;"/><path d="M46.97,69.02h-4.28l2.76-2.84c1.07-1.1,2.49-1.77,4.02-1.91h0c1.36-.12,2.05,.37,3.04,2.01l4.82,8.67-2.03,.37c-1.45,.27-2.93-.24-3.91-1.34l-4.41-4.96Z" style="fill:#fff;"/><path d="M54.54,75.84c-1.32,0-2.61-.56-3.5-1.56l-4.28-4.81h-4.08c-.18,0-.34-.11-.42-.28-.07-.17-.03-.36,.09-.49l2.76-2.84c1.14-1.18,2.67-1.9,4.3-2.04,1.71-.15,2.51,.63,3.47,2.23h0l4.82,8.68c.07,.13,.08,.28,.01,.41-.06,.13-.18,.22-.33,.25l-2.03,.37c-.28,.05-.56,.08-.83,.08Zm-10.79-7.27h3.21c.13,0,.25,.06,.34,.15l4.41,4.96c.87,.98,2.21,1.44,3.49,1.2l1.42-.26-4.51-8.11c-.99-1.64-1.58-1.87-2.61-1.79-1.42,.12-2.74,.75-3.73,1.77l-2.02,2.08Z" style="fill:#262626;"/><path d="M41.34,69.02h-4.28l2.76-2.84c1.07-1.1,2.49-1.77,4.02-1.91h0c1.36-.12,2.62,.72,3.04,2.01l3.81,11.03-2.82,.14c-1.46,.07-2.82-.71-3.49-2.01l-3.04-6.42Z" style="fill:#fff;"/><path d="M47.68,77.91c-1.55,0-2.99-.87-3.7-2.26h0l-2.92-6.17h-3.99c-.18,0-.34-.11-.42-.28-.07-.17-.03-.36,.09-.49l2.76-2.84c1.14-1.18,2.67-1.9,4.3-2.04,1.57-.13,3.01,.82,3.51,2.32l3.8,11.02c.05,.13,.03,.28-.05,.4-.08,.12-.21,.19-.35,.2l-2.82,.14c-.07,0-.14,0-.21,0Zm-2.89-2.67c.58,1.14,1.78,1.83,3.06,1.76l2.22-.11-3.61-10.46c-.36-1.11-1.42-1.81-2.58-1.71-1.42,.12-2.74,.75-3.73,1.77l-2.02,2.08h3.21c.17,0,.33,.1,.41,.26l3.04,6.41Z" style="fill:#262626;"/><path d="M35.71,69.02h-4.28l2.76-2.84c1.07-1.1,2.49-1.77,4.02-1.91h0c1.36-.12,2.62,.72,3.04,2.01l3.44,10.09-2.82,.14c-1.46,.07-2.82-.71-3.49-2.01l-2.67-5.48Z" style="fill:#fff;"/><path d="M41.68,76.97c-1.55,0-2.99-.87-3.7-2.27l-2.55-5.24h-4c-.18,0-.34-.11-.42-.28-.07-.17-.03-.36,.09-.49l2.76-2.84c1.14-1.18,2.67-1.9,4.3-2.04,1.57-.13,3.01,.82,3.51,2.32l3.44,10.09c.05,.13,.03,.28-.05,.4-.08,.12-.21,.19-.35,.2l-2.82,.14c-.07,0-.14,0-.21,0Zm-9.19-8.4h3.21c.17,0,.33,.1,.41,.25l2.67,5.48c.58,1.13,1.78,1.83,3.06,1.76l2.22-.11-3.25-9.53c-.36-1.1-1.42-1.8-2.58-1.7-1.42,.12-2.74,.75-3.73,1.77l-2.02,2.08Z" style="fill:#262626;"/><path d="M30.36,69.02h-4.28l2.76-2.84c1.07-1.1,2.49-1.77,4.02-1.91h0c1.36-.12,2.62,.72,3.04,2.01l2.88,8.76-2.82,.14c-1.46,.07-2.82-.71-3.49-2.01l-2.12-4.15Z" style="fill:#fff;"/><path d="M35.78,75.63c-1.55,0-2.99-.87-3.7-2.26l-1.99-3.9h-4c-.18,0-.34-.11-.42-.28-.07-.17-.03-.36,.09-.49l2.76-2.84c1.14-1.18,2.67-1.9,4.3-2.04,1.57-.13,3.01,.82,3.51,2.32l2.88,8.76c.04,.13,.02,.28-.06,.4-.08,.12-.21,.19-.35,.2l-2.82,.14c-.07,0-.14,0-.21,0Zm-8.63-7.07h3.21c.17,0,.32,.09,.4,.25l2.12,4.15c.58,1.14,1.79,1.84,3.06,1.77l2.23-.11-2.7-8.2c-.36-1.1-1.42-1.8-2.58-1.7-1.42,.12-2.74,.75-3.73,1.77l-2.02,2.08Z" style="fill:#262626;"/><path d="M80.85,96.36H19.55c-.25,0-.45-.2-.45-.45s.2-.45,.45-.45h61.3c.25,0,.45,.2,.45,.45s-.2,.45-.45,.45Z" style="fill:#262626;"/><path d="M87,96.36h-3.74c-.25,0-.45-.2-.45-.45s.2-.45,.45-.45h3.74c.25,0,.45,.2,.45,.45s-.2,.45-.45,.45Z" style="fill:#262626;"/><circle cx="56.58" cy="95.91" r="4.65" style="fill:#42e0ba;"/><path d="M56.58,101.01c-2.81,0-5.1-2.29-5.1-5.1s2.29-5.1,5.1-5.1,5.1,2.29,5.1,5.1-2.29,5.1-5.1,5.1Zm0-9.29c-2.31,0-4.2,1.88-4.2,4.2s1.88,4.2,4.2,4.2,4.2-1.88,4.2-4.2-1.88-4.2-4.2-4.2Z" style="fill:#262626;"/><polygon points="17.16 95.91 14.64 97.37 12.13 98.82 12.13 95.91 12.13 93.01 14.64 94.46 17.16 95.91" style="fill:#fff;"/><path d="M12.13,99.27c-.08,0-.16-.02-.23-.06-.14-.08-.23-.23-.23-.39v-5.81c0-.16,.09-.31,.23-.39,.14-.08,.31-.08,.45,0l5.03,2.91c.14,.08,.23,.23,.23,.39s-.09,.31-.23,.39l-5.03,2.91c-.07,.04-.15,.06-.23,.06Zm.45-5.48v4.25l3.68-2.13-3.68-2.13Z" style="fill:#262626;"/><path d="M129.32,53.57l-1.9-7.4-4.72-2.6c-1.23-.67-1.93-2.06-1.77-3.47h0c.08-.73,.81-1.16,1.46-.87l6.82,3.07c1.15,.52,2,1.57,2.29,2.83l1.85,8.08-4.03,.36Z" style="fill:#fff;"/><path d="M129.32,54.02c-.2,0-.38-.14-.44-.34l-1.86-7.21-4.55-2.5c-1.38-.76-2.18-2.33-2-3.92,.06-.5,.33-.92,.76-1.17,.41-.24,.9-.26,1.34-.06l6.82,3.07c1.27,.57,2.22,1.75,2.54,3.14l1.85,8.08c.03,.13,0,.26-.07,.37-.08,.11-.2,.17-.32,.18l-4.03,.36s-.03,0-.04,0Zm-7.35-14.42c-.1,0-.19,.03-.28,.08-.17,.1-.28,.27-.31,.48-.14,1.23,.48,2.45,1.54,3.03l4.72,2.6c.11,.06,.19,.16,.22,.28l1.81,7.03,3.14-.28-1.74-7.57c-.26-1.12-1.02-2.06-2.03-2.52l-6.82-3.07c-.08-.04-.16-.05-.24-.05Z" style="fill:#262626;"/><path d="M128.23,77.08c-.95-2.9-1.63-5.89-2.03-8.92l-.23-1.71-10.66-4.11c-.87-.34-1.55-1.07-1.82-1.99l-.04-.15c-.31-1.04,.6-2.02,1.61-1.72,3.52,1.01,9.75,2.83,9.47,2.89-.28,.06-6.4-3.08-9.76-4.82-1.35-.7-2.24-2.07-2.36-3.62v-.03c-.07-.91,.8-1.58,1.63-1.25l12.27,4.89-11.69-7.22c-.84-.52-1.27-1.55-1.05-2.52l.12-.52c.17-.76,.96-1.17,1.66-.86l18.02,7.8,1.47,5.99c.51,2.08,.46,4.25-.14,6.28l-2.2,5.65-4.25,5.94Z" style="fill:#fff;"/><path d="M128.23,77.53c-.19,0-.37-.12-.43-.31-.96-2.92-1.65-5.95-2.05-9l-.19-1.45-10.41-4.01c-1-.38-1.78-1.24-2.09-2.28l-.04-.15c-.2-.66-.02-1.36,.45-1.84,.46-.46,1.1-.63,1.72-.45,.98,.28,2.2,.64,3.44,1-1.46-.74-2.94-1.51-4.07-2.09-1.47-.76-2.47-2.29-2.6-3.99v-.03c-.05-.6,.21-1.16,.68-1.5,.45-.33,1.04-.41,1.57-.2l7.46,2.98-7.29-4.5c-1.01-.63-1.52-1.83-1.25-3.01l.12-.52c.11-.5,.43-.91,.88-1.14,.44-.22,.95-.24,1.4-.04l18.02,7.8c.13,.06,.23,.17,.26,.31l1.47,5.99c.53,2.15,.48,4.41-.14,6.52,0,.01,0,.02-.01,.04l-2.2,5.65c-.09,.23-.35,.35-.58,.26-.23-.09-.35-.35-.26-.58l2.19-5.63c.57-1.95,.62-4.04,.13-6.03l-1.41-5.78-17.81-7.71c-.21-.09-.43-.08-.63,.02-.21,.1-.35,.3-.41,.53l-.12,.52c-.18,.79,.17,1.62,.84,2.04l11.69,7.22c.2,.12,.27,.38,.17,.59-.11,.21-.35,.3-.57,.22l-12.27-4.89c-.24-.1-.49-.06-.7,.09-.22,.16-.34,.42-.31,.71v.03c.11,1.38,.92,2.63,2.12,3.25,5.48,2.84,7.84,4,8.86,4.47,.25,.08,.45,.15,.59,.2,.27,.1,.57,.21,.56,.56,0,.21-.15,.39-.36,.43-.13,.03-.23,.05-1.13-.35-1.02-.33-3.34-1.04-8.57-2.54-.31-.09-.61,0-.83,.22-.24,.25-.33,.6-.22,.95l.04,.15c.23,.78,.81,1.42,1.55,1.7l10.66,4.11c.15,.06,.26,.2,.28,.36l.23,1.71c.4,2.99,1.08,5.97,2.02,8.84,.08,.24-.05,.49-.29,.57-.05,.02-.09,.02-.14,.02Z" style="fill:#262626;"/><path d="M80.45,31.05c.27-.02,1.65-.13,2.15-.93,.15-.24,.28-.64,.05-1.19-.45-1.05-1.36-4.48-1.37-4.51-.06-.24-.31-.39-.56-.32-.24,.06-.39,.31-.32,.56,.04,.14,.94,3.53,1.41,4.64,.1,.22,.04,.31,.02,.35-.18,.3-.96,.48-1.43,.51-.25,.01-.44,.23-.43,.48,.01,.25,.23,.44,.48,.43Z" style="fill:#262626;"/></g><path d="M150.96,107.35H.45c-.25,0-.45-.2-.45-.45s.2-.45,.45-.45H150.96c.25,0,.45,.2,.45,.45s-.2,.45-.45,.45Z" style="fill:#262626;"/></svg>