<svg width="18" height="18" viewBox="0 0 18 18" fill="none" xmlns="http://www.w3.org/2000/svg">
<path d="M17.1787 9.80543C16.9836 9.80444 16.7964 9.72712 16.6567 9.58975L8.95471 1.78215L1.2527 9.58975C1.11096 9.71948 0.926352 9.79134 0.734914 9.79134C0.543475 9.79134 0.358915 9.71948 0.217183 9.58975C0.148357 9.52079 0.0937362 9.4388 0.0564635 9.34848C0.0191908 9.25816 0 9.16132 0 9.0635C0 8.96568 0.0191908 8.86882 0.0564635 8.7785C0.0937362 8.68819 0.148357 8.60619 0.217183 8.53723L8.47548 0.211994C8.61577 0.0759747 8.80285 0 8.99749 0C9.19214 0 9.37921 0.0759747 9.51951 0.211994L17.7778 8.53723C17.8878 8.64536 17.9615 8.78549 17.9885 8.93797C18.0155 9.09045 17.9946 9.24762 17.9285 9.38747C17.8625 9.52732 17.7546 9.64283 17.6202 9.71778C17.4857 9.79274 17.3314 9.82338 17.1787 9.80543Z" fill="white"/>
<path d="M14.9202 17.5703H10.9322C10.7377 17.5681 10.5518 17.4892 10.4143 17.3505C10.2768 17.2119 10.1985 17.0245 10.1963 16.8284V11.5313H7.56047V16.7853C7.55824 16.9813 7.47999 17.1688 7.34245 17.3074C7.2049 17.4461 7.01901 17.525 6.82451 17.5272H2.83654C2.64204 17.525 2.45615 17.4461 2.31861 17.3074C2.18106 17.1688 2.10281 16.9813 2.10059 16.7853V7.01927C2.10059 6.8225 2.17813 6.6338 2.31615 6.49466C2.45417 6.35552 2.64135 6.27734 2.83654 6.27734C3.03174 6.27734 3.21892 6.35552 3.35694 6.49466C3.49496 6.6338 3.5725 6.8225 3.5725 7.01927V16.0692H6.05428V10.8153C6.05428 10.6185 6.13183 10.4298 6.26985 10.2906C6.40787 10.1515 6.59505 10.0733 6.79024 10.0733H10.898C11.0932 10.0733 11.2804 10.1515 11.4184 10.2906C11.5564 10.4298 11.634 10.6185 11.634 10.8153V16.0692H14.15V7.01927C14.15 6.8225 14.2275 6.6338 14.3655 6.49466C14.5036 6.35552 14.6907 6.27734 14.8859 6.27734C15.0811 6.27734 15.2683 6.35552 15.4063 6.49466C15.5444 6.6338 15.6219 6.8225 15.6219 7.01927V16.8111C15.6244 17.0044 15.5529 17.1913 15.4222 17.3327C15.2914 17.4741 15.1116 17.5592 14.9202 17.5703Z" fill="white"/>
</svg>
