<?xml version="1.0" encoding="utf-8"?>
<!-- Generator: Adobe Illustrator 26.0.1, SVG Export Plug-In . SVG Version: 6.00 Build 0)  -->
<svg version="1.1" id="Layer_1" xmlns="http://www.w3.org/2000/svg" xmlns:xlink="http://www.w3.org/1999/xlink" x="0px" y="0px"
	 viewBox="0 0 512 512" style="enable-background:new 0 0 512 512;" xml:space="preserve">
<style type="text/css">
	.st0{fill:#07485E;}
</style>
<path class="st0" d="M448,344v-24c0-35.3-28.7-64-64-64H277.3v-44.8c57.7-11.8,95-68.1,83.2-125.8s-68.1-95-125.8-83.2
	s-95,68.1-83.2,125.8c8.6,41.9,41.3,74.6,83.2,83.2V256H128c-35.3,0-64,28.7-64,64v24C18.4,355.8-9.1,402.4,2.7,448
	c11.8,45.6,58.3,73.1,104,61.3c45.6-11.8,73.1-58.3,61.3-104c-7.8-30.1-31.2-53.5-61.3-61.3v-24c0-11.8,9.6-21.3,21.3-21.3h106.7
	V344c-45.6,11.8-73.1,58.3-61.3,104c11.8,45.6,58.3,73.1,104,61.3c45.6-11.8,73.1-58.3,61.3-104c-7.8-30.1-31.2-53.5-61.3-61.3
	v-45.4H384c11.8,0,21.3,9.6,21.3,21.3v24c-45.6,11.8-73.1,58.3-61.3,104c11.8,45.6,58.3,73.1,104,61.3c45.6-11.8,73.1-58.3,61.3-104
	C501.5,375.3,478.1,351.8,448,344z M192,106.7c0-35.3,28.7-64,64-64s64,28.7,64,64s-28.7,64-64,64S192,142,192,106.7z M128,426.7
	c0,23.6-19.1,42.7-42.7,42.7s-42.7-19.1-42.7-42.7c0-23.6,19.1-42.7,42.7-42.7S128,403.1,128,426.7z M298.7,426.7
	c0,23.6-19.1,42.7-42.7,42.7s-42.7-19.1-42.7-42.7c0-23.6,19.1-42.7,42.7-42.7S298.7,403.1,298.7,426.7z M426.7,469.3
	c-23.6,0-42.7-19.1-42.7-42.7c0-23.6,19.1-42.7,42.7-42.7c23.6,0,42.7,19.1,42.7,42.7C469.3,450.2,450.2,469.3,426.7,469.3z"/>
</svg>
