<svg width="18" height="18" viewBox="0 0 18 18" fill="none" xmlns="http://www.w3.org/2000/svg">
<path d="M9 9C11.4855 9 13.5 6.98555 13.5 4.5C13.5 2.01445 11.4855 0 9 0C6.51445 0 4.5 2.01445 4.5 4.5C4.50352 6.98555 6.51445 8.99648 9 9ZM9 1.50117C10.6559 1.50117 11.9988 2.84414 11.9988 4.5C11.9988 6.15586 10.6559 7.49883 9 7.49883C7.34414 7.49883 6.00117 6.15586 6.00117 4.5C6.00117 2.84414 7.34414 1.50117 9 1.50117Z" fill="white"/>
<path d="M9 9.50122C5.27344 9.50474 2.25352 12.5247 2.25 16.2512C2.25 16.6661 2.5875 17.0001 2.99883 17.0001C3.41016 17.0001 3.74766 16.6626 3.74766 16.2512C3.74766 13.3508 6.09961 11.0024 8.99648 11.0024C11.8934 11.0024 14.2453 13.3543 14.2453 16.2512C14.2453 16.6661 14.5828 17.0001 14.9941 17.0001C15.409 17.0001 15.743 16.6626 15.743 16.2512C15.7465 12.5247 12.7266 9.50474 9 9.50122Z" fill="white"/>
</svg>
